.
 
http://www.scenetime.com    -  Hottest private tracker on the net. !!!

New release on http://www.scenetime.com

        Seed back for speed


...................................NFO:.................................................








































          
          
              
              
                    
                    
                    
                    

I.want.to.be.a.Soldier.2010.BRRip.Xvid.AC3-SiC

Poster:
[img]http://img189.imageshack.us/img189/1109/96332008.jpg[/img]

IMDB Link:
http://www.imdb.com/title/tt1637687/

Description:
I Want To Be A Soldier" is the story of Alex, an average eight year old kid 
who seems to grow a morbid fascination for images portraying violence...

MediaInfo:
General
Complete name                    : I.want.to.be.a.Soldier.2010.BRRip.Xvid.AC3-SiC.avi
Format                           : AVI
Format/Info                      : Audio Video Interleave
File size                        : 1.20 GiB
Duration                         : 1h 28mn
Overall bit rate                 : 1 931 Kbps

Video
ID                               : 0
Format                           : MPEG-4 Visual
Format profile                   : Advanced Simple@L5
Format settings, BVOP            : Yes
Format settings, QPel            : No
Format settings, GMC             : No warppoints
Format settings, Matrix          : Default (H.263)
Muxing mode                      : Packed bitstream
Codec ID                         : XVID
Codec ID/Hint                    : XviD
Duration                         : 1h 28mn
Bit rate                         : 1 539 Kbps
Width                            : 720 pixels
Height                           : 304 pixels
Display aspect ratio             : 2.35:1
Frame rate                       : 23.976 fps
Resolution                       : 8 bits
Colorimetry                      : 4:2:0
Scan type                        : Progressive
Bits/(Pixel*Frame)               : 0.293
Stream size                      : 977 MiB (80%)
Writing library                  : XviD 64

Audio
ID                               : 1
Format                           : AC-3
Format/Info                      : Audio Coding 3
Format_Settings_ModeExtension    : CM (complete main)
Codec ID                         : 2000
Duration                         : 1h 28mn
Bit rate mode                    : Constant
Bit rate                         : 384 Kbps
Channel(s)                       : 6 channels
Channel positions                : Front: L C R, Side: L R, LFE
Sampling rate                    : 48.0 KHz
Stream size                      : 244 MiB (20%)
Alignment                        : Aligned on interleaves
Interleave, duration             : 64 ms (1.53 video frames)
Interleave, preload duration     : 192 ms
Title                            : 6ch English

Screenshots:
[img]http://img546.imageshack.us/img546/9397/iwanttobeasoldier2010br.png[/img]
[img]http://img683.imageshack.us/img683/9397/iwanttobeasoldier2010br.png[/img]
[img]http://img821.imageshack.us/img821/9397/iwanttobeasoldier2010br.png[/img]
[img]http://img707.imageshack.us/img707/9397/iwanttobeasoldier2010br.png[/img]
[img]http://img845.imageshack.us/img845/5923/vlcsnap2011091217h48m48.png[/img]

Note :   N/A

Source : BluRay-CHD Thanks!!!

Enjoy!

Respects to CaptainHomey, Cyanide, CM8, Rx, THC, ELEKTRI4KA, 
Killerhz, PA, YeFsTe, BoxSlots, MrRep and everyone in the struggle...